<svg width="136" height="136" viewBox="0 0 136 136" fill="none" xmlns="http://www.w3.org/2000/svg">
<rect width="136" height="136" rx="68" fill="#CEE9FF"/>
<rect x="42.0031" y="34" width="66" height="59" rx="7" fill="#48A5EE"/>
<path d="M70.0838 56.0743L70.0687 56.0622L70.0534 56.0503L69.4892 55.6119L69.4248 55.5619L69.3574 55.5162C68.4486 54.9005 67.3966 54.5801 66.329 54.5801C64.4891 54.5801 62.8037 55.508 61.7868 57.0022L53.9347 67.9895C53.8789 68.0069 53.8136 68.0258 53.7381 68.0459C53.1493 68.2028 52.2057 68.3647 50.844 68.5094C48.1467 68.796 44.1618 68.9803 38.8667 69.0476H35.2319C29.8311 69.0476 25.4969 73.5097 25.4969 78.8994V94.6484C25.4969 100.038 29.8311 104.5 35.2319 104.5H41.3385C46.7394 104.5 51.0735 100.038 51.0735 94.6484V80.831L58.4684 78.6296C59.3489 78.3904 60.2135 77.9166 60.8779 77.4144C61.2264 77.151 61.5924 76.8255 61.9056 76.4438C62.091 76.2178 62.3431 75.8701 62.5257 75.4188C62.5382 75.4018 62.5509 75.3844 62.5639 75.3666C62.7399 75.126 62.9848 74.7887 63.281 74.3791C63.8743 73.559 64.6828 72.4365 65.579 71.1906C66.3496 70.1194 67.1848 68.9573 68.0052 67.8157C69.0786 66.3223 70.1268 64.8638 70.9723 63.6896C72.8555 61.3235 72.3625 57.9023 70.0838 56.0743Z" fill="#032EA2" stroke="#CEE9FF" stroke-width="5"/>
<path d="M27.6882 57.0634V57.0809L27.6885 57.0983C27.7744 63.2659 32.7959 68.3452 39.0036 68.3452C45.2173 68.3452 50.218 63.2525 50.218 57.0634C50.218 50.8306 45.1063 45.8154 38.9027 45.8154C32.7015 45.8154 27.6882 50.8618 27.6882 57.0634Z" fill="#032EA2" stroke="#CEE9FF" stroke-width="5"/>
<g filter="url(#filter0_d_748_17525)">
<path d="M39.1044 66.0464C34.293 66.0464 30.3564 62.0946 30.2891 57.2646C30.2891 52.4346 34.1921 48.5166 39.0035 48.5166C43.8486 48.5166 47.8189 52.4346 47.8189 57.2646C47.8189 62.0946 43.9159 66.0464 39.1044 66.0464Z" fill="#032EA2"/>
</g>
<defs>
<filter id="filter0_d_748_17525" x="26.2891" y="48.5166" width="25.5298" height="25.5303" filterUnits="userSpaceOnUse" color-interpolation-filters="sRGB">
<feFlood flood-opacity="0" result="BackgroundImageFix"/>
<feColorMatrix in="SourceAlpha" type="matrix" values="0 0 0 0 0 0 0 0 0 0 0 0 0 0 0 0 0 0 127 0" result="hardAlpha"/>
<feOffset dy="4"/>
<feGaussianBlur stdDeviation="2"/>
<feComposite in2="hardAlpha" operator="out"/>
<feColorMatrix type="matrix" values="0 0 0 0 0 0 0 0 0 0 0 0 0 0 0 0 0 0 0.25 0"/>
<feBlend mode="normal" in2="BackgroundImageFix" result="effect1_dropShadow_748_17525"/>
<feBlend mode="normal" in="SourceGraphic" in2="effect1_dropShadow_748_17525" result="shape"/>
</filter>
</defs>
</svg>
