<svg width="137" height="136" viewBox="0 0 137 136" fill="none" xmlns="http://www.w3.org/2000/svg">
<rect x="0.5" width="136" height="136" rx="68" fill="#CEE9FF"/>
<g filter="url(#filter0_d_748_17455)">
<path d="M55.561 70.5049C43.0244 70.5049 32.8615 80.6678 32.8615 93.2044V97.7443C32.8615 102.759 36.9266 106.824 41.9413 106.824H96.4202C101.435 106.824 105.5 102.759 105.5 97.7443V93.2044C105.5 80.6678 95.3371 70.5049 82.8005 70.5049H55.561Z" fill="#032EA2"/>
</g>
<path d="M33.6969 53.7188C29.6717 56.3233 27.1732 61.4032 29.3953 66.3731C31.2336 70.4845 34.5515 76.0633 40.4643 81.9762C46.3772 87.8891 51.956 91.207 56.0674 93.0452C61.0374 95.2673 66.1172 92.7688 68.7218 88.7436L71.3774 84.6394C72.9598 82.1939 72.3612 78.9388 70.0123 77.2162L63.3139 72.3041C61.6512 71.0847 59.446 70.8979 57.6018 71.82L54.7643 73.2387C54.0616 72.827 52.9666 72.0698 51.6686 70.7719C50.3707 69.4739 49.6135 68.3789 49.2018 67.6763L50.6205 64.8388C51.5427 62.9945 51.3558 60.7894 50.1364 59.1266L48.1204 60.605L50.1364 59.1266L45.2243 52.4282C43.5018 50.0793 40.2467 49.4807 37.8012 51.0631L33.6969 53.7188Z" fill="#48A5EE" stroke="#D3EBFF" stroke-width="5" stroke-linejoin="round"/>
<g filter="url(#filter1_d_748_17455)">
<path d="M31.6774 65.3527C30.0853 61.7919 31.7801 57.9367 35.0548 55.8177L39.1591 53.162C40.493 52.2989 42.2685 52.6254 43.208 53.9066L48.1202 60.605C48.7853 61.512 48.8872 62.7148 48.3842 63.7207L46.6001 67.289C46.4815 67.5263 46.4625 67.8004 46.5727 68.0416C46.904 68.7672 47.8204 70.4595 49.9006 72.5397C51.9808 74.6198 53.6731 75.5362 54.3987 75.8676C54.6399 75.9778 54.914 75.9588 55.1512 75.8402L58.7196 74.0561C59.7255 73.5531 60.9283 73.655 61.8353 74.3201L68.5337 79.2323C69.8149 80.1718 70.1414 81.9473 69.2783 83.2812L66.6226 87.3855C64.5036 90.6602 60.6484 92.355 57.0876 90.7629C53.2349 89.0403 47.9143 85.8908 42.2319 80.2084C36.5494 74.526 33.3999 69.2054 31.6774 65.3527Z" fill="#48A5EE"/>
</g>
<g filter="url(#filter2_d_748_17455)">
<circle cx="69.807" cy="47.3354" r="18.1596" fill="#032EA2"/>
</g>
<defs>
<filter id="filter0_d_748_17455" x="28.8615" y="70.5049" width="80.6385" height="44.3193" filterUnits="userSpaceOnUse" color-interpolation-filters="sRGB">
<feFlood flood-opacity="0" result="BackgroundImageFix"/>
<feColorMatrix in="SourceAlpha" type="matrix" values="0 0 0 0 0 0 0 0 0 0 0 0 0 0 0 0 0 0 127 0" result="hardAlpha"/>
<feOffset dy="4"/>
<feGaussianBlur stdDeviation="2"/>
<feComposite in2="hardAlpha" operator="out"/>
<feColorMatrix type="matrix" values="0 0 0 0 0 0 0 0 0 0 0 0 0 0 0 0 0 0 0.25 0"/>
<feBlend mode="normal" in2="BackgroundImageFix" result="effect1_dropShadow_748_17455"/>
<feBlend mode="normal" in="SourceGraphic" in2="effect1_dropShadow_748_17455" result="shape"/>
</filter>
<filter id="filter1_d_748_17455" x="27.0721" y="52.6807" width="46.6876" height="46.6875" filterUnits="userSpaceOnUse" color-interpolation-filters="sRGB">
<feFlood flood-opacity="0" result="BackgroundImageFix"/>
<feColorMatrix in="SourceAlpha" type="matrix" values="0 0 0 0 0 0 0 0 0 0 0 0 0 0 0 0 0 0 127 0" result="hardAlpha"/>
<feOffset dy="4"/>
<feGaussianBlur stdDeviation="2"/>
<feComposite in2="hardAlpha" operator="out"/>
<feColorMatrix type="matrix" values="0 0 0 0 0 0 0 0 0 0 0 0 0 0 0 0 0 0 0.25 0"/>
<feBlend mode="normal" in2="BackgroundImageFix" result="effect1_dropShadow_748_17455"/>
<feBlend mode="normal" in="SourceGraphic" in2="effect1_dropShadow_748_17455" result="shape"/>
</filter>
<filter id="filter2_d_748_17455" x="47.6473" y="29.1758" width="44.3192" height="44.3193" filterUnits="userSpaceOnUse" color-interpolation-filters="sRGB">
<feFlood flood-opacity="0" result="BackgroundImageFix"/>
<feColorMatrix in="SourceAlpha" type="matrix" values="0 0 0 0 0 0 0 0 0 0 0 0 0 0 0 0 0 0 127 0" result="hardAlpha"/>
<feOffset dy="4"/>
<feGaussianBlur stdDeviation="2"/>
<feComposite in2="hardAlpha" operator="out"/>
<feColorMatrix type="matrix" values="0 0 0 0 0 0 0 0 0 0 0 0 0 0 0 0 0 0 0.25 0"/>
<feBlend mode="normal" in2="BackgroundImageFix" result="effect1_dropShadow_748_17455"/>
<feBlend mode="normal" in="SourceGraphic" in2="effect1_dropShadow_748_17455" result="shape"/>
</filter>
</defs>
</svg>
