<svg width="136" height="136" viewBox="0 0 136 136" fill="none" xmlns="http://www.w3.org/2000/svg">
<rect width="136" height="136" rx="68" fill="#CEE9FF"/>
<g filter="url(#filter0_d_748_17512)">
<path fill-rule="evenodd" clip-rule="evenodd" d="M67.0455 76.1178C61.7619 76.1178 56.9855 78.3924 53.5239 82.0803C52.0341 83.6674 49.6157 83.6706 48.1222 82.0875C46.6286 80.5044 46.6256 77.9345 48.1153 76.3474C52.9515 71.1952 59.6509 68 67.0455 68C74.44 68 81.1394 71.1952 85.9756 76.3474C87.4653 77.9345 87.4623 80.5044 85.9687 82.0875C84.4752 83.6706 82.0568 83.6674 80.567 82.0803C77.1054 78.3924 72.329 76.1178 67.0455 76.1178Z" fill="#032EA2" stroke="#032EA2" stroke-width="2" stroke-linecap="round"/>
<path fill-rule="evenodd" clip-rule="evenodd" d="M68 60.4807C58.596 60.4807 50.0877 64.375 43.9173 70.6838C42.4374 72.1968 40.0397 72.1952 38.5619 70.68C37.0841 69.1649 37.0857 66.7101 38.5656 65.197C46.098 57.4957 56.5086 52.7266 68 52.7266C79.4915 52.7266 89.9021 57.4957 97.4345 65.197C98.9144 66.7101 98.916 69.1649 97.4382 70.68C95.9604 72.1952 93.5626 72.1968 92.0828 70.6838C85.9124 64.375 77.4041 60.4807 68 60.4807Z" fill="#032EA2" stroke="#032EA2" stroke-width="2" stroke-linecap="round"/>
<path fill-rule="evenodd" clip-rule="evenodd" d="M68 44.9635C54.1653 44.9635 41.6468 50.4241 32.5778 59.2632C31.0733 60.7297 28.6336 60.7299 27.1288 59.2637C25.6239 57.7976 25.6237 55.4202 27.1283 53.9538C37.5834 43.7637 52.0392 37.4541 68 37.4541C83.9608 37.4541 98.4166 43.7637 108.872 53.9538C110.376 55.4202 110.376 57.7976 108.871 59.2637C107.366 60.7299 104.927 60.7297 103.422 59.2632C94.3532 50.4241 81.8347 44.9635 68 44.9635Z" fill="#032EA2" stroke="#032EA2" stroke-width="2" stroke-linecap="round"/>
</g>
<g filter="url(#filter1_d_748_17512)">
<circle cx="67.6364" cy="90.9088" r="7.63636" fill="#48A5EE"/>
<circle cx="67.6364" cy="90.9088" r="7.63636" fill="#48A5EE"/>
</g>
<defs>
<filter id="filter0_d_748_17512" x="21" y="36.4541" width="94" height="55.8184" filterUnits="userSpaceOnUse" color-interpolation-filters="sRGB">
<feFlood flood-opacity="0" result="BackgroundImageFix"/>
<feColorMatrix in="SourceAlpha" type="matrix" values="0 0 0 0 0 0 0 0 0 0 0 0 0 0 0 0 0 0 127 0" result="hardAlpha"/>
<feOffset dy="4"/>
<feGaussianBlur stdDeviation="2"/>
<feComposite in2="hardAlpha" operator="out"/>
<feColorMatrix type="matrix" values="0 0 0 0 0 0 0 0 0 0 0 0 0 0 0 0 0 0 0.25 0"/>
<feBlend mode="normal" in2="BackgroundImageFix" result="effect1_dropShadow_748_17512"/>
<feBlend mode="normal" in="SourceGraphic" in2="effect1_dropShadow_748_17512" result="shape"/>
</filter>
<filter id="filter1_d_748_17512" x="56" y="83.2725" width="23.2727" height="23.2725" filterUnits="userSpaceOnUse" color-interpolation-filters="sRGB">
<feFlood flood-opacity="0" result="BackgroundImageFix"/>
<feColorMatrix in="SourceAlpha" type="matrix" values="0 0 0 0 0 0 0 0 0 0 0 0 0 0 0 0 0 0 127 0" result="hardAlpha"/>
<feOffset dy="4"/>
<feGaussianBlur stdDeviation="2"/>
<feComposite in2="hardAlpha" operator="out"/>
<feColorMatrix type="matrix" values="0 0 0 0 0 0 0 0 0 0 0 0 0 0 0 0 0 0 0.25 0"/>
<feBlend mode="normal" in2="BackgroundImageFix" result="effect1_dropShadow_748_17512"/>
<feBlend mode="normal" in="SourceGraphic" in2="effect1_dropShadow_748_17512" result="shape"/>
</filter>
</defs>
</svg>
